name C:\Users\u0101727\Documents\MyRepositories\upper-imu-dc\Results\main_tracking\Case_47\FLX03_linearAccelerations_bodyFrame.mot
datacolumns 4
datarows 117
range 0.51000000 1.67000000
endheader 
time	radius_imu_x	radius_imu_y	radius_imu_z	
          0.51000000	         -1.19046388	          9.84355657	          0.40093218	
          0.52000000	         -1.04808663	          9.85039871	          0.35634898	
          0.53000000	         -1.02471530	          9.84361720	          0.32473583	
          0.54000000	         -1.03492927	          9.84281756	          0.30696893	
          0.55000000	         -1.05574010	          9.84237361	          0.30088630	
          0.56000000	         -1.07813549	          9.84370231	          0.30493369	
          0.57000000	         -1.09829084	          9.84637166	          0.31716185	
          0.58000000	         -1.11399925	          9.85052274	          0.33618127	
          0.59000000	         -1.12360593	          9.85602060	          0.36185868	
          0.60000000	         -1.12575710	          9.86272479	          0.39408215	
          0.61000000	         -1.11959381	          9.87026880	          0.43240795	
          0.62000000	         -1.10549483	          9.87817942	          0.47591029	
          0.63000000	         -1.08512201	          9.88599466	          0.52429870	
          0.64000000	         -1.06068618	          9.89337616	          0.57957651	
          0.65000000	         -1.03433548	          9.90013080	          0.64446714	
          0.66000000	         -1.00775650	          9.90614507	          0.72089994	
          0.67000000	         -0.98164060	          9.91133649	          0.80864239	
          0.68000000	         -0.95626552	          9.91565530	          0.90562796	
          0.69000000	         -0.93159715	          9.91907297	          1.00889801	
          0.70000000	         -0.90761239	          9.92158414	          1.11537687	
          0.71000000	         -0.88448234	          9.92318764	          1.22200523	
          0.72000000	         -0.86225353	          9.92388324	          1.32590840	
          0.73000000	         -0.84103777	          9.92367736	          1.42520218	
          0.74000000	         -0.82115915	          9.92259567	          1.51907865	
          0.75000000	         -0.80340244	          9.92060349	          1.60687526	
          0.76000000	         -0.78944415	          9.91757126	          1.68733914	
          0.77000000	         -0.78182932	          9.91329225	          1.75905229	
          0.78000000	         -0.78317368	          9.90760310	          1.82168292	
          0.79000000	         -0.79522398	          9.90047298	          1.87739544	
          0.80000000	         -0.81817507	          9.89203954	          1.93096607	
          0.81000000	         -0.85112715	          9.88246167	          1.98805492	
          0.82000000	         -0.89336157	          9.87180393	          2.05307295	
          0.83000000	         -0.94479977	          9.85998023	          2.12804019	
          0.84000000	         -1.00608788	          9.84683747	          2.21235100	
          0.85000000	         -1.07764810	          9.83222400	          2.30336573	
          0.86000000	         -1.15865123	          9.81610688	          2.39751845	
          0.87000000	         -1.24678238	          9.79862101	          2.49171550	
          0.88000000	         -1.33888694	          9.78005201	          2.58382444	
          0.89000000	         -1.43226610	          9.76079961	          2.67156970	
          0.90000000	         -1.52564775	          9.74131896	          2.75191628	
          0.91000000	         -1.61831003	          9.72220553	          2.82256322	
          0.92000000	         -1.70842382	          9.70412737	          2.88493882	
          0.93000000	         -1.79277784	          9.68780853	          2.94457839	
          0.94000000	         -1.86831125	          9.67362120	          3.00565100	
          0.95000000	         -1.93678015	          9.66177989	          3.06687805	
          0.96000000	         -2.00199864	          9.65241311	          3.12411870	
          0.97000000	         -2.06632698	          9.64585769	          3.17610833	
          0.98000000	         -2.12546004	          9.64243744	          3.22847049	
          0.99000000	         -2.17190122	          9.64216528	          3.28848262	
          1.00000000	         -2.20049415	          9.64457419	          3.35633556	
          1.01000000	         -2.21674280	          9.64846202	          3.41969937	
          1.02000000	         -2.23642441	          9.65393868	          3.46118986	
          1.03000000	         -2.23838557	          9.65988909	          3.49445651	
          1.04000000	         -2.21213064	          9.66429498	          3.52040884	
          1.05000000	         -2.17649142	          9.66600574	          3.50866074	
          1.06000000	         -2.14065763	          9.66348124	          3.43368572	
          1.07000000	         -2.09984404	          9.65511084	          3.28386897	
          1.08000000	         -2.05170244	          9.63876643	          3.04905316	
          1.09000000	         -2.00029367	          9.61466242	          2.71868956	
          1.10000000	         -1.94777355	          9.57488479	          2.29840134	
          1.11000000	         -1.84546025	          9.55135389	          1.84664957	
          1.12000000	         -1.75371335	          9.40974426	          1.59557025	
          1.13000000	         -1.27193964	          9.59008577	          2.95954610	
          1.14000000	         -3.28906997	          9.82241961	          4.50669560	
          1.15000000	         -2.45040474	          9.66171469	          4.32830653	
          1.16000000	         -2.43734938	          9.60965485	          3.68896044	
          1.17000000	         -2.31309653	          9.46673244	          3.21609920	
          1.18000000	         -2.25693898	          9.62258910	          4.00897481	
          1.19000000	         -4.11427987	          9.84700479	          5.03878910	
          1.20000000	         -3.27443296	          9.82143699	          4.44315176	
          1.21000000	         -3.21267973	          9.66825136	          4.67010169	
          1.22000000	         -3.21802202	          9.67958598	          4.28917783	
          1.23000000	         -3.27034354	          9.85695414	          4.45105070	
          1.24000000	         -3.13539321	          9.72755082	          5.47641328	
          1.25000000	         -3.36044435	          9.80331824	          5.62896799	
          1.26000000	         -3.43817000	          9.82258162	          5.40900156	
          1.27000000	         -3.43596242	          9.82687625	          5.13126155	
          1.28000000	         -3.41066943	          9.83264000	          4.88529393	
          1.29000000	         -3.36217475	          9.83509014	          4.71472984	
          1.30000000	         -3.30892859	          9.83741071	          4.61594480	
          1.31000000	         -3.27701987	          9.84251798	          4.56362208	
          1.32000000	         -3.23654478	          9.84732730	          4.55710862	
          1.33000000	         -3.18349075	          9.85219513	          4.58238305	
          1.34000000	         -3.11664192	          9.85637893	          4.62692903	
          1.35000000	         -3.03520689	          9.85952435	          4.68143249	
          1.36000000	         -2.94183619	          9.86121019	          4.73798969	
          1.37000000	         -2.83545383	          9.86057833	          4.79257066	
          1.38000000	         -2.71424396	          9.85660164	          4.84312607	
          1.39000000	         -2.57627220	          9.84815218	          4.88914478	
          1.40000000	         -2.42043351	          9.83417345	          4.93118293	
          1.41000000	         -2.24665710	          9.81371625	          4.97055836	
          1.42000000	         -2.05584001	          9.78594575	          5.00902084	
          1.43000000	         -1.84960236	          9.75011873	          5.04850491	
          1.44000000	         -1.62991824	          9.70559100	          5.09107049	
          1.45000000	         -1.39864197	          9.65182951	          5.13880707	
          1.46000000	         -1.15714514	          9.58840562	          5.19353347	
          1.47000000	         -0.90642294	          9.51500550	          5.25669442	
          1.48000000	         -0.64726516	          9.43136661	          5.32892169	
          1.49000000	         -0.38056036	          9.33724115	          5.41017609	
          1.50000000	         -0.10739467	          9.23236619	          5.50004582	
          1.51000000	          0.17097285	          9.11647133	          5.59819694	
          1.52000000	          0.45317255	          8.98932587	          5.70467614	
          1.53000000	          0.73774883	          8.85079625	          5.81987170	
          1.54000000	          1.02313327	          8.70084472	          5.94418153	
          1.55000000	          1.30767804	          8.53951224	          6.07755210	
          1.56000000	          1.58981419	          8.36687919	          6.21916016	
          1.57000000	          1.86833067	          8.18304363	          6.36736891	
          1.58000000	          2.14263702	          7.98812296	          6.51988741	
          1.59000000	          2.41283124	          7.78227926	          6.67397443	
          1.60000000	          2.67946657	          7.56574512	          6.82663389	
          1.61000000	          2.94307600	          7.33882867	          6.97487845	
          1.62000000	          3.20380383	          7.10195086	          7.11609357	
          1.63000000	          3.46148028	          6.85567528	          7.24860462	
          1.64000000	          3.71615203	          6.60077584	          7.37241673	
          1.65000000	          3.96883207	          6.33839794	          7.48991685	
          1.66000000	          4.22219604	          6.07013027	          7.60661599	
          1.67000000	          4.48142808	          5.79817295	          7.73176345	
